<svg xmlns="http://www.w3.org/2000/svg" width="32" height="32" id="lights">
  <path d="M111.157 1024.204v3.135a1 1 0 0 0-.5.865 1 1 0 0 0 .5.863v2.725a1.596 1.596 0 0 0-1.092 1.502c0 .3.09.578.236.818h-.601a.545.545 0 0 0-.545.547v1.092a6 6 0 0 0-2.91 2.877h-.004a4.56 4.56 0 0 0-.024.057c-.067.145-.13.293-.185.443l-.045.135a6.01 6.01 0 0 0-.176.615 6 6 0 0 0-.062 2.328c.013.091.029.183.046.274a5.98 5.98 0 0 0 .186.64 5.994 5.994 0 0 0 .258.641 6 6 0 0 0 4.426 3.35h.03c.17.028.341.049.513.062.148.013.297.02.447.022a7.118 7.118 0 0 0 1.055-.098c.103-.02.206-.041.308-.066.092-.021.183-.043.274-.068a6.169 6.169 0 0 0 .843-.311c.096-.043.192-.09.285-.137.084-.044.167-.09.248-.138l.1-.055.027.152a5.98 5.98 0 0 0 .186.64 5.994 5.994 0 0 0 .258.641 6 6 0 0 0 4.425 3.35h.032c.17.028.34.049.511.062.15.013.298.02.448.022a7.118 7.118 0 0 0 1.055-.098c.103-.02.206-.041.308-.066.092-.021.183-.043.273-.068a6.169 6.169 0 0 0 .844-.311c.096-.043.191-.09.285-.137a6.347 6.347 0 0 0 .987-.642 6.115 6.115 0 0 0 .662-.621 5.992 5.992 0 0 0 .55-.695 5.96 5.96 0 0 0 .456-.8h.002a6.115 6.115 0 0 0 .217-.52l.003-.011.02-.055c.025-.074.05-.148.072-.223a6.16 6.16 0 0 0 .084-.283l.01-.035a5.713 5.713 0 0 0 .088-.428c.01-.058.017-.116.023-.174a6.017 6.017 0 0 0 .045-1.216 5.492 5.492 0 0 0-.025-.274 5.973 5.973 0 0 0-.04-.312 6.14 6.14 0 0 0-.056-.28 5.985 5.985 0 0 0-.072-.306l-.014-.06a5.802 5.802 0 0 0-.074-.234 5.881 5.881 0 0 0-.076-.228l.883-.555 3.75 2.336.89.555s-.9-3.873-1.336-5.299l4.188-3.518-5.453-.369-1.547-3.83v-3.373c.051-.03.1-.063.144-.101l.012-.012a1.004 1.004 0 0 0 .227-.285l.008-.014.008-.018a.982.982 0 0 0 .062-.16l.002-.01a1 1 0 0 0 0-.535.99.99 0 0 0-.072-.182c-.004-.01-.01-.018-.014-.027a1.336 1.336 0 0 0-.035-.06c-.005-.01-.01-.016-.016-.024a1.002 1.002 0 0 0-.261-.261l-.012-.01a.624.624 0 0 0-.053-.033v-3.135h-1v3.135a1 1 0 0 0-.5.865 1 1 0 0 0 .5.863v3.364l-1.543 3.845-3.095.211c-.016-.026-.027-.055-.043-.08a1.6 1.6 0 0 0-.818-.615v-2.723c.05-.03.099-.063.144-.101l.012-.012a1.004 1.004 0 0 0 .226-.285l.008-.014.008-.018a.982.982 0 0 0 .063-.16l.002-.01a1 1 0 0 0 0-.535.99.99 0 0 0-.073-.182l-.013-.027a1.336 1.336 0 0 0-.036-.06c-.005-.01-.01-.016-.015-.024a.998.998 0 0 0-.158-.18l-.047-.038a1.152 1.152 0 0 0-.057-.043l-.012-.01a.624.624 0 0 0-.052-.033v-7.135h-1v7.135a1 1 0 0 0-.5.865 1 1 0 0 0 .5.863v2.725a1.596 1.596 0 0 0-1.092 1.502c0 .3.09.578.236.818h-.601a.545.545 0 0 0-.545.547v1.09H123.16v-.16l.515.43a3.636 3.636 0 0 0-.093-.05 6.152 6.152 0 0 0-.42-.218h-5.006c-.208.098-.41.208-.606.33a4.665 4.665 0 0 0-.029-.123 5.951 5.951 0 0 0-.074-.315l-.014-.057a5.802 5.802 0 0 0-.074-.234 5.745 5.745 0 0 0-.174-.473 5.955 5.955 0 0 0-.101-.24h-.004a3.924 3.924 0 0 0-.053-.1 6.016 6.016 0 0 0-.162-.3 6.116 6.116 0 0 0-.127-.217 6.272 6.272 0 0 0-.738-.95 5.971 5.971 0 0 0-.7-.629 5.843 5.843 0 0 0-.479-.328 6.402 6.402 0 0 0-.66-.363h-.001v-1.09a.545.545 0 0 0-.545-.547h-.6c.04-.065.078-.13.108-.2a1.56 1.56 0 0 0 .126-.616 1.587 1.587 0 0 0-1.091-1.502v-2.723a.93.93 0 0 0 .144-.101l.012-.012a1.004 1.004 0 0 0 .226-.285l.008-.014.008-.018a.982.982 0 0 0 .063-.16l.002-.01a1 1 0 0 0 0-.535.99.99 0 0 0-.072-.181c-.004-.01-.01-.018-.014-.027a1.336 1.336 0 0 0-.035-.06c-.005-.01-.01-.016-.016-.024a1.002 1.002 0 0 0-.158-.18l-.047-.04a1.152 1.152 0 0 0-.057-.042l-.011-.01c-.017-.011-.035-.023-.053-.033v-3.135zm.5 8.498a.584.584 0 0 1 .592.594.585.585 0 0 1-.592.59.585.585 0 0 1-.592-.592c0-.332.26-.592.592-.592zm8.46 4.348.868.724a.58.58 0 0 1-.328.112.585.585 0 0 1-.592-.592c0-.088.02-.17.053-.244z" style="color:#000;font-style:normal;font-variant:normal;font-weight:400;font-stretch:normal;font-size:medium;line-height:normal;font-family:sans-serif;text-indent:0;text-align:start;text-decoration:none;text-decoration-line:none;text-decoration-style:solid;text-decoration-color:#000;letter-spacing:normal;word-spacing:normal;text-transform:none;direction:ltr;block-progression:tb;writing-mode:lr-tb;baseline-shift:baseline;text-anchor:start;white-space:normal;clip-rule:nonzero;display:inline;overflow:visible;visibility:visible;opacity:1;isolation:auto;mix-blend-mode:normal;color-interpolation:sRGB;color-interpolation-filters:linearRGB;solid-color:#000;solid-opacity:1;fill:#004463;fill-opacity:1;fill-rule:evenodd;stroke:#004463;stroke-width:1;stroke-linecap:butt;stroke-linejoin:miter;stroke-miterlimit:4;stroke-dasharray:none;stroke-dashoffset:0;stroke-opacity:1;color-rendering:auto;image-rendering:auto;shape-rendering:auto;text-rendering:auto;enable-background:accumulate" transform="translate(-104.164 -1021.688)"></path>
  <g transform="translate(-329.003 -1142.86)">
    <path fill="none" d="M352 1154.362v-9" style="fill:#000;fill-opacity:0;fill-rule:evenodd;stroke:#485b6a;stroke-width:1px;stroke-linecap:butt;stroke-linejoin:miter;stroke-opacity:1"></path>
    <circle cx="352" cy="1149.362" r="1" style="fill:#485b6a;fill-opacity:1;stroke:none;stroke-width:1;stroke-linecap:round;stroke-linejoin:round;stroke-opacity:1"></circle>
    <path fill="none" d="M345.5 1157.635v-12.273" style="fill:#000;fill-opacity:0;fill-rule:evenodd;stroke:#485b6a;stroke-width:1px;stroke-linecap:butt;stroke-linejoin:miter;stroke-opacity:1"></path>
    <path d="m22.059 1047.362-5.907-4.623-6.74 3.294 2.573-7.046-5.216-5.392 7.497.269 3.515-6.627 2.061 7.213 7.389 1.296-6.223 4.189z" style="opacity:1;fill:#fecb5b;fill-opacity:1;stroke:none;stroke-width:1;stroke-linecap:round;stroke-linejoin:round;stroke-opacity:1" transform="rotate(65.913 -129.103 1220.613)scale(.72906)"></path>
    <path d="m17.048 1037.111-10.335-3.28 7.483-.513zM17.048 1037.111 17 1026.362l2.808 6.956z" style="opacity:1;fill:#f8b545;fill-opacity:1;stroke:none;stroke-width:1;stroke-linecap:round;stroke-linejoin:round;stroke-opacity:1" transform="rotate(143.886 116.33 1013.567)scale(.72906)"></path>
    <path d="m16.949 1037.111.051-10.749 2.808 6.956z" style="opacity:1;fill:#f8b545;fill-opacity:1;stroke:none;stroke-width:1;stroke-linecap:round;stroke-linejoin:round;stroke-opacity:1" transform="rotate(-144.138 247.575 903.261)scale(.72906)"></path>
    <path d="m17.005 1037.262-10.292-3.43 7.483-.514zM17.005 1037.262l-.005-10.9 2.808 6.956z" style="opacity:1;fill:#f8b545;fill-opacity:1;stroke:none;stroke-width:1;stroke-linecap:round;stroke-linejoin:round;stroke-opacity:1" transform="translate(339.606 404.084)scale(.72906)"></path>
    <path fill="none" d="M336.5 1153.635v-8.273" style="fill:#000;fill-opacity:0;fill-rule:evenodd;stroke:#485b6a;stroke-width:1px;stroke-linecap:butt;stroke-linejoin:miter;stroke-opacity:1"></path>
    <circle cx="336.5" cy="1149.362" r="1" style="fill:#485b6a;fill-opacity:1;stroke:none;stroke-width:1;stroke-linecap:round;stroke-linejoin:round;stroke-opacity:1"></circle>
    <path d="M336.5 1152.861a1.6 1.6 0 0 0-1.592 1.592c0 .873.72 1.59 1.592 1.59.873 0 1.592-.717 1.592-1.59a1.6 1.6 0 0 0-1.592-1.592zm0 1c.332 0 .592.26.592.592 0 .332-.26.59-.592.59a.583.583 0 0 1-.592-.59c0-.332.26-.592.592-.592z" style="color:#000;font-style:normal;font-variant:normal;font-weight:400;font-stretch:normal;font-size:medium;line-height:normal;font-family:sans-serif;text-indent:0;text-align:start;text-decoration:none;text-decoration-line:none;text-decoration-style:solid;text-decoration-color:#000;letter-spacing:normal;word-spacing:normal;text-transform:none;direction:ltr;block-progression:tb;writing-mode:lr-tb;baseline-shift:baseline;text-anchor:start;white-space:normal;clip-rule:nonzero;display:inline;overflow:visible;visibility:visible;opacity:1;isolation:auto;mix-blend-mode:normal;color-interpolation:sRGB;color-interpolation-filters:linearRGB;solid-color:#000;solid-opacity:1;fill:#d8d7dc;fill-opacity:1;fill-rule:nonzero;stroke:none;stroke-width:.99999988;stroke-linecap:butt;stroke-linejoin:miter;stroke-miterlimit:4;stroke-dasharray:none;stroke-dashoffset:0;stroke-opacity:1;color-rendering:auto;image-rendering:auto;shape-rendering:auto;text-rendering:auto;enable-background:accumulate"></path>
    <path d="M336.5 1152.862c-.175 0-.342.034-.5.088.63.213 1.092.807 1.092 1.504s-.462 1.288-1.092 1.5c.158.053.325.09.5.09.873 0 1.592-.717 1.592-1.59a1.6 1.6 0 0 0-1.592-1.592z" style="color:#000;font-style:normal;font-variant:normal;font-weight:400;font-stretch:normal;font-size:medium;line-height:normal;font-family:sans-serif;text-indent:0;text-align:start;text-decoration:none;text-decoration-line:none;text-decoration-style:solid;text-decoration-color:#000;letter-spacing:normal;word-spacing:normal;text-transform:none;direction:ltr;block-progression:tb;writing-mode:lr-tb;baseline-shift:baseline;text-anchor:start;white-space:normal;clip-rule:nonzero;display:inline;overflow:visible;visibility:visible;opacity:1;isolation:auto;mix-blend-mode:normal;color-interpolation:sRGB;color-interpolation-filters:linearRGB;solid-color:#000;solid-opacity:1;fill:#c7c6cc;fill-opacity:1;fill-rule:nonzero;stroke:none;stroke-width:.99999988;stroke-linecap:butt;stroke-linejoin:miter;stroke-miterlimit:4;stroke-dasharray:none;stroke-dashoffset:0;stroke-opacity:1;color-rendering:auto;image-rendering:auto;shape-rendering:auto;text-rendering:auto;enable-background:accumulate"></path>
    <path d="M339.004 1156.91a6 6 0 0 1 3.357 6.735 6 6 0 0 1-5.863 4.717 6 6 0 0 1-5.86-4.72 6 6 0 0 1 3.36-6.734" style="fill:#6fb7e6;fill-opacity:1;fill-rule:evenodd;stroke:none;stroke-width:1px;stroke-linecap:butt;stroke-linejoin:miter;stroke-opacity:1"></path>
    <path d="M332.473 1158.854a.5.5 0 0 0-.274.1l-1.115.836a6 6 0 0 0-.494 1.557.5.5 0 0 0 .21-.092l1.7-1.276 1.7 1.276a.5.5 0 0 0 .6 0l1.7-1.276 1.7 1.276a.5.5 0 0 0 .6 0l1.7-1.276 1.7 1.276a.5.5 0 0 0 .208.09 6 6 0 0 0-.482-1.547l-1.125-.844a.5.5 0 0 0-.602 0l-1.699 1.276-1.7-1.276a.5.5 0 0 0-.6 0l-1.7 1.276-1.7-1.276a.5.5 0 0 0-.327-.101zm.027 2.508a1 1 0 0 0-1 1 1 1 0 0 0 1 1 1 1 0 0 0 1-1 1 1 0 0 0-1-1zm4 0a1 1 0 0 0-1 1 1 1 0 0 0 1 1 1 1 0 0 0 1-1 1 1 0 0 0-1-1zm4 0a1 1 0 0 0-1 1 1 1 0 0 0 1 1 1 1 0 0 0 1-1 1 1 0 0 0-1-1zm-6.027 2a.5.5 0 0 0-.274.102l-1.699 1.273-1.7-1.273a.5.5 0 0 0-.208-.096 6 6 0 0 0 .047.273 6 6 0 0 0 .443 1.283l1.117.838a.5.5 0 0 0 .602 0l1.699-1.275 1.7 1.275a.5.5 0 0 0 .6 0l1.7-1.275 1.7 1.275a.5.5 0 0 0 .6 0l1.12-.84a6 6 0 0 0 .441-1.277 6 6 0 0 0 .053-.28.5.5 0 0 0-.215.099l-1.699 1.273-1.7-1.273a.5.5 0 0 0-.6 0l-1.7 1.273-1.7-1.273a.5.5 0 0 0-.327-.102z" style="color:#000;font-style:normal;font-variant:normal;font-weight:400;font-stretch:normal;font-size:medium;line-height:normal;font-family:sans-serif;text-indent:0;text-align:start;text-decoration:none;text-decoration-line:none;text-decoration-style:solid;text-decoration-color:#000;letter-spacing:normal;word-spacing:normal;text-transform:none;direction:ltr;block-progression:tb;writing-mode:lr-tb;baseline-shift:baseline;text-anchor:start;white-space:normal;clip-rule:nonzero;display:inline;overflow:visible;visibility:visible;opacity:1;isolation:auto;mix-blend-mode:normal;color-interpolation:sRGB;color-interpolation-filters:linearRGB;solid-color:#000;solid-opacity:1;fill:#3a90cd;fill-opacity:1;fill-rule:evenodd;stroke:none;stroke-width:1px;stroke-linecap:round;stroke-linejoin:round;stroke-miterlimit:4;stroke-dasharray:none;stroke-dashoffset:0;stroke-opacity:1;color-rendering:auto;image-rendering:auto;shape-rendering:auto;text-rendering:auto;enable-background:accumulate"></path>
    <path d="M337.004 1156.91a6 6 0 0 1 3.357 6.735 6 6 0 0 1-4.855 4.63 6 6 0 0 0 .992.087 6 6 0 0 0 5.863-4.717 6 6 0 0 0-3.357-6.736h-2z" style="fill:#3a90cd;fill-opacity:1;fill-rule:evenodd;stroke:none;stroke-width:1px;stroke-linecap:butt;stroke-linejoin:miter;stroke-opacity:1"></path>
    <path d="M340.473 1158.856a.5.5 0 0 0-.274.1l-.517.389a6 6 0 0 1 .437.922l.381-.285 1.7 1.275a.5.5 0 0 0 .208.09 6 6 0 0 0-.129-.582 6 6 0 0 0-.152-.463 6 6 0 0 0-.047-.135 6 6 0 0 0-.066-.156 6 6 0 0 0-.1-.217l-1.113-.834a.5.5 0 0 0-.328-.1zm.027 2.506a1 1 0 0 0-.088.01 6 6 0 0 1 .004 1.99 1 1 0 0 0 .084 0 1 1 0 0 0 1-1 1 1 0 0 0-1-1zm1.908 2.006a.5.5 0 0 0-.209.096l-1.699 1.274-.383-.288a6 6 0 0 1-.433.926l.515.387a.5.5 0 0 0 .602 0l1.117-.838a6 6 0 0 0 .002 0 6 6 0 0 0 .016-.039 6 6 0 0 0 .2-.482 6 6 0 0 0 .044-.127 6 6 0 0 0 .136-.446 6 6 0 0 0 .045-.183 6 6 0 0 0 .047-.278z" style="color:#000;font-style:normal;font-variant:normal;font-weight:400;font-stretch:normal;font-size:medium;line-height:normal;font-family:sans-serif;text-indent:0;text-align:start;text-decoration:none;text-decoration-line:none;text-decoration-style:solid;text-decoration-color:#000;letter-spacing:normal;word-spacing:normal;text-transform:none;direction:ltr;block-progression:tb;writing-mode:lr-tb;baseline-shift:baseline;text-anchor:start;white-space:normal;clip-rule:nonzero;display:inline;overflow:visible;visibility:visible;opacity:1;isolation:auto;mix-blend-mode:normal;color-interpolation:sRGB;color-interpolation-filters:linearRGB;solid-color:#000;solid-opacity:1;fill:#1c7bcc;fill-opacity:1;fill-rule:evenodd;stroke:none;stroke-width:1px;stroke-linecap:round;stroke-linejoin:round;stroke-miterlimit:4;stroke-dasharray:none;stroke-dashoffset:0;stroke-opacity:1;color-rendering:auto;image-rendering:auto;shape-rendering:auto;text-rendering:auto;enable-background:accumulate"></path>
    <path d="M345.5 1156.861a1.6 1.6 0 0 0-1.592 1.592c0 .873.72 1.59 1.592 1.59.873 0 1.592-.717 1.592-1.59a1.6 1.6 0 0 0-1.592-1.592zm0 1c.332 0 .592.26.592.592 0 .332-.26.59-.592.59a.583.583 0 0 1-.592-.59c0-.332.26-.592.592-.592z" style="color:#000;font-style:normal;font-variant:normal;font-weight:400;font-stretch:normal;font-size:medium;line-height:normal;font-family:sans-serif;text-indent:0;text-align:start;text-decoration:none;text-decoration-line:none;text-decoration-style:solid;text-decoration-color:#000;letter-spacing:normal;word-spacing:normal;text-transform:none;direction:ltr;block-progression:tb;writing-mode:lr-tb;baseline-shift:baseline;text-anchor:start;white-space:normal;clip-rule:nonzero;display:inline;overflow:visible;visibility:visible;opacity:1;isolation:auto;mix-blend-mode:normal;color-interpolation:sRGB;color-interpolation-filters:linearRGB;solid-color:#000;solid-opacity:1;fill:#d8d7dc;fill-opacity:1;fill-rule:nonzero;stroke:none;stroke-width:.99999988;stroke-linecap:butt;stroke-linejoin:miter;stroke-miterlimit:4;stroke-dasharray:none;stroke-dashoffset:0;stroke-opacity:1;color-rendering:auto;image-rendering:auto;shape-rendering:auto;text-rendering:auto;enable-background:accumulate"></path>
    <path d="M345.5 1156.862c-.175 0-.342.034-.5.088.63.213 1.092.807 1.092 1.504s-.462 1.288-1.092 1.5c.158.053.325.09.5.09.873 0 1.592-.717 1.592-1.59a1.6 1.6 0 0 0-1.592-1.592z" style="color:#000;font-style:normal;font-variant:normal;font-weight:400;font-stretch:normal;font-size:medium;line-height:normal;font-family:sans-serif;text-indent:0;text-align:start;text-decoration:none;text-decoration-line:none;text-decoration-style:solid;text-decoration-color:#000;letter-spacing:normal;word-spacing:normal;text-transform:none;direction:ltr;block-progression:tb;writing-mode:lr-tb;baseline-shift:baseline;text-anchor:start;white-space:normal;clip-rule:nonzero;display:inline;overflow:visible;visibility:visible;opacity:1;isolation:auto;mix-blend-mode:normal;color-interpolation:sRGB;color-interpolation-filters:linearRGB;solid-color:#000;solid-opacity:1;fill:#c7c6cc;fill-opacity:1;fill-rule:nonzero;stroke:none;stroke-width:.99999988;stroke-linecap:butt;stroke-linejoin:miter;stroke-miterlimit:4;stroke-dasharray:none;stroke-dashoffset:0;stroke-opacity:1;color-rendering:auto;image-rendering:auto;shape-rendering:auto;text-rendering:auto;enable-background:accumulate"></path>
    <path d="M334.543 1155.27a.545.545 0 0 0-.545.547v1.09H339.002v-1.09a.545.545 0 0 0-.545-.547h-3.914zM343.543 1159.27a.545.545 0 0 0-.545.547v1.09H348.002v-1.09a.545.545 0 0 0-.545-.547h-3.914z" style="fill:#d8d7dc;fill-opacity:1;stroke:none"></path>
    <path d="M348.004 1160.91a6 6 0 0 1 3.357 6.735 6 6 0 0 1-5.863 4.717 6 6 0 0 1-5.86-4.72 6 6 0 0 1 3.36-6.734" style="fill:#91ca60;fill-opacity:1;fill-rule:evenodd;stroke:none;stroke-width:1px;stroke-linecap:butt;stroke-linejoin:miter;stroke-opacity:1"></path>
    <path d="M341.473 1162.854a.5.5 0 0 0-.274.1l-1.115.836a6 6 0 0 0-.494 1.557.5.5 0 0 0 .21-.092l1.7-1.276 1.7 1.276a.5.5 0 0 0 .6 0l1.7-1.276 1.7 1.276a.5.5 0 0 0 .6 0l1.7-1.276 1.7 1.276a.5.5 0 0 0 .208.09 6 6 0 0 0-.482-1.547l-1.125-.844a.5.5 0 0 0-.602 0l-1.699 1.276-1.7-1.276a.5.5 0 0 0-.6 0l-1.7 1.276-1.7-1.276a.5.5 0 0 0-.327-.101zm.027 2.508a1 1 0 0 0-1 1 1 1 0 0 0 1 1 1 1 0 0 0 1-1 1 1 0 0 0-1-1zm4 0a1 1 0 0 0-1 1 1 1 0 0 0 1 1 1 1 0 0 0 1-1 1 1 0 0 0-1-1zm4 0a1 1 0 0 0-1 1 1 1 0 0 0 1 1 1 1 0 0 0 1-1 1 1 0 0 0-1-1zm-6.027 2a.5.5 0 0 0-.274.102l-1.699 1.273-1.7-1.273a.5.5 0 0 0-.208-.096 6 6 0 0 0 .047.273 6 6 0 0 0 .443 1.283l1.117.838a.5.5 0 0 0 .602 0l1.699-1.275 1.7 1.275a.5.5 0 0 0 .6 0l1.7-1.275 1.7 1.275a.5.5 0 0 0 .6 0l1.12-.84a6 6 0 0 0 .441-1.277 6 6 0 0 0 .053-.28.5.5 0 0 0-.215.099l-1.699 1.273-1.7-1.273a.5.5 0 0 0-.6 0l-1.7 1.273-1.7-1.273a.5.5 0 0 0-.327-.102z" style="color:#000;font-style:normal;font-variant:normal;font-weight:400;font-stretch:normal;font-size:medium;line-height:normal;font-family:sans-serif;text-indent:0;text-align:start;text-decoration:none;text-decoration-line:none;text-decoration-style:solid;text-decoration-color:#000;letter-spacing:normal;word-spacing:normal;text-transform:none;direction:ltr;block-progression:tb;writing-mode:lr-tb;baseline-shift:baseline;text-anchor:start;white-space:normal;clip-rule:nonzero;display:inline;overflow:visible;visibility:visible;opacity:1;isolation:auto;mix-blend-mode:normal;color-interpolation:sRGB;color-interpolation-filters:linearRGB;solid-color:#000;solid-opacity:1;fill:#70bb57;fill-opacity:1;fill-rule:evenodd;stroke:none;stroke-width:1px;stroke-linecap:round;stroke-linejoin:round;stroke-miterlimit:4;stroke-dasharray:none;stroke-dashoffset:0;stroke-opacity:1;color-rendering:auto;image-rendering:auto;shape-rendering:auto;text-rendering:auto;enable-background:accumulate"></path>
    <circle cx="345.5" cy="1153.362" r="1" style="fill:#485b6a;fill-opacity:1;stroke:none;stroke-width:1;stroke-linecap:round;stroke-linejoin:round;stroke-opacity:1"></circle>
    <path d="M346.004 1160.91a6 6 0 0 1 3.357 6.735 6 6 0 0 1-4.855 4.63 6 6 0 0 0 .992.087 6 6 0 0 0 5.863-4.717 6 6 0 0 0-3.357-6.736h-2z" style="fill:#70bb57;fill-opacity:1;fill-rule:evenodd;stroke:none;stroke-width:1px;stroke-linecap:butt;stroke-linejoin:miter;stroke-opacity:1"></path>
    <path d="M349.473 1162.856a.5.5 0 0 0-.274.1l-.517.389a6 6 0 0 1 .437.922l.381-.285 1.7 1.275a.5.5 0 0 0 .208.09 6 6 0 0 0-.129-.582 6 6 0 0 0-.152-.463 6 6 0 0 0-.047-.135 6 6 0 0 0-.066-.156 6 6 0 0 0-.1-.217l-1.113-.834a.5.5 0 0 0-.328-.1zm.027 2.506a1 1 0 0 0-.088.01 6 6 0 0 1 .004 1.99 1 1 0 0 0 .084 0 1 1 0 0 0 1-1 1 1 0 0 0-1-1zm1.908 2.006a.5.5 0 0 0-.209.096l-1.699 1.274-.383-.288a6 6 0 0 1-.433.926l.515.387a.5.5 0 0 0 .602 0l1.117-.838a6 6 0 0 0 .002 0 6 6 0 0 0 .016-.039 6 6 0 0 0 .2-.482 6 6 0 0 0 .044-.127 6 6 0 0 0 .136-.446 6 6 0 0 0 .045-.183 6 6 0 0 0 .047-.278z" style="color:#000;font-style:normal;font-variant:normal;font-weight:400;font-stretch:normal;font-size:medium;line-height:normal;font-family:sans-serif;text-indent:0;text-align:start;text-decoration:none;text-decoration-line:none;text-decoration-style:solid;text-decoration-color:#000;letter-spacing:normal;word-spacing:normal;text-transform:none;direction:ltr;block-progression:tb;writing-mode:lr-tb;baseline-shift:baseline;text-anchor:start;white-space:normal;clip-rule:nonzero;display:inline;overflow:visible;visibility:visible;opacity:1;isolation:auto;mix-blend-mode:normal;color-interpolation:sRGB;color-interpolation-filters:linearRGB;solid-color:#000;solid-opacity:1;fill:#52a44c;fill-opacity:1;fill-rule:evenodd;stroke:none;stroke-width:1px;stroke-linecap:round;stroke-linejoin:round;stroke-miterlimit:4;stroke-dasharray:none;stroke-dashoffset:0;stroke-opacity:1;color-rendering:auto;image-rendering:auto;shape-rendering:auto;text-rendering:auto;enable-background:accumulate"></path>
    <path d="M336.457 1155.27c.302 0 .545.245.545.547v1.09h2v-1.09a.545.545 0 0 0-.545-.547h-2zM345.457 1159.27c.302 0 .545.245.545.547v1.09h2v-1.09a.545.545 0 0 0-.545-.547h-2z" style="fill:#c7c6cc;fill-opacity:1;stroke:none"></path>
    <path d="M352 128a1 1 0 0 0-.25.033 1 1 0 0 1 .75.967 1 1 0 0 1-.75.967 1 1 0 0 0 .25.033 1 1 0 0 0 1-1 1 1 0 0 0-1-1zM336.5 128a1 1 0 0 0-.25.033 1 1 0 0 1 .75.967 1 1 0 0 1-.75.967 1 1 0 0 0 .25.033 1 1 0 0 0 1-1 1 1 0 0 0-1-1zM345.5 132a1 1 0 0 0-.25.033 1 1 0 0 1 .75.967 1 1 0 0 1-.75.967 1 1 0 0 0 .25.033 1 1 0 0 0 1-1 1 1 0 0 0-1-1z" style="fill:#34485c;fill-opacity:1;stroke:none;stroke-width:1;stroke-linecap:round;stroke-linejoin:round;stroke-opacity:1" transform="translate(0 1020.362)"></path>
  </g>
</svg>
